<?xml version="1.0" encoding="utf-8"?>
<!DOCTYPE svg PUBLIC "-//W3C//DTD SVG 1.1//EN" "http://www.w3.org/Graphics/SVG/1.1/DTD/svg11.dtd">
<svg version="1.1" id="Layer_1" xmlns="http://www.w3.org/2000/svg" xmlns:xlink="http://www.w3.org/1999/xlink" x="0px" y="0px"
	 width="6.463px" height="5.621px" viewBox="0 0 6.463 5.621" enable-background="new 0 0 6.463 5.621" xml:space="preserve">
<rect x="1.534" y="2.448" opacity="0.7" fill="#231F20" enable-background="new    " width="2.579" height="2.168"/>
<path opacity="0.7" fill="none" stroke="#231F20" stroke-width="0.6347" stroke-miterlimit="10" enable-background="new    " d="
	M2.03,2.448C1.934,2.334,1.848,2.231,1.819,2.197C1.522,1.843,1.554,1.328,1.889,1.047C2.224,0.766,2.737,0.823,3.034,1.177
	C3.067,1.216,3.152,1.318,3.245,1.429"/>
<path opacity="0.8" fill="none" stroke="#FFFFFF" stroke-width="0.0949" stroke-miterlimit="10" enable-background="new    " d="
	M2.199,2.306C2.132,2.226,2.071,2.154,2.051,2.129C1.778,1.804,1.8,1.448,2.044,1.226C2.044,1.226,2.145,1.11,2.326,1.103"/>
<polyline opacity="0.8" fill="none" stroke="#FFFFFF" stroke-width="0.0974" stroke-miterlimit="10" enable-background="new    " points="
	1.534,4.555 4.061,4.555 4.061,2.448 "/>
<path opacity="0.8" fill="none" stroke="#FFFFFF" stroke-width="0.0974" stroke-miterlimit="10" enable-background="new    " d="
	M3.459,1.25L3.158,0.891C3.158,0.891,2.977,0.739,2.88,0.697"/>
</svg>
